<svg xmlns="http://www.w3.org/2000/svg" xmlns:xlink="http://www.w3.org/1999/xlink" width="500" zoomAndPan="magnify"
  viewBox="0 0 375 374.999991" height="500" preserveAspectRatio="xMidYMid meet" version="1.0">
  <defs>
    <clipPath id="61e94fb4f9">
      <path d="M 232 108.1875 L 290.90625 108.1875 L 290.90625 232.6875 L 232 232.6875 Z M 232 108.1875 "
        clip-rule="nonzero" />
    </clipPath>
    <clipPath id="d89de3c41d">
      <path d="M 83.90625 108.1875 L 240 108.1875 L 240 232.6875 L 83.90625 232.6875 Z M 83.90625 108.1875 "
        clip-rule="nonzero" />
    </clipPath>
  </defs>
  <g clip-path="url(#61e94fb4f9)">
    <path fill="#6ea9fc"
      d="M 232.253906 111.628906 L 232.253906 229.21875 C 232.253906 229.679688 232.339844 230.121094 232.515625 230.546875 C 232.691406 230.972656 232.941406 231.351562 233.265625 231.675781 C 233.589844 232 233.964844 232.253906 234.390625 232.429688 C 234.816406 232.605469 235.257812 232.691406 235.71875 232.6875 L 287.46875 232.6875 C 287.925781 232.6875 288.367188 232.597656 288.789062 232.421875 C 289.210938 232.242188 289.582031 231.992188 289.902344 231.667969 C 290.226562 231.339844 290.472656 230.964844 290.648438 230.542969 C 290.820312 230.117188 290.90625 229.675781 290.90625 229.21875 L 290.90625 111.628906 C 290.902344 111.171875 290.816406 110.734375 290.640625 110.3125 C 290.464844 109.890625 290.214844 109.519531 289.894531 109.195312 C 289.574219 108.875 289.203125 108.625 288.78125 108.449219 C 288.359375 108.273438 287.921875 108.183594 287.46875 108.183594 L 235.539062 108.183594 C 235.09375 108.191406 234.664062 108.285156 234.257812 108.46875 C 233.847656 108.648438 233.488281 108.898438 233.183594 109.222656 C 232.875 109.546875 232.640625 109.917969 232.480469 110.332031 C 232.316406 110.75 232.242188 111.183594 232.253906 111.628906 Z M 232.253906 111.628906 "
      fill-opacity="1" fill-rule="nonzero" />
  </g>
  <g clip-path="url(#d89de3c41d)">
    <path fill="#ff9166"
      d="M 83.90625 111.628906 L 83.90625 229.21875 C 83.902344 229.679688 83.988281 230.121094 84.164062 230.546875 C 84.339844 230.972656 84.589844 231.351562 84.914062 231.675781 C 85.242188 232 85.617188 232.253906 86.042969 232.429688 C 86.464844 232.605469 86.910156 232.691406 87.367188 232.6875 L 235.71875 232.6875 C 236.175781 232.6875 236.617188 232.597656 237.039062 232.421875 C 237.460938 232.242188 237.832031 231.992188 238.152344 231.667969 C 238.476562 231.339844 238.722656 230.964844 238.898438 230.542969 C 239.070312 230.117188 239.15625 229.675781 239.15625 229.21875 L 239.15625 111.628906 C 239.152344 111.171875 239.066406 110.734375 238.890625 110.3125 C 238.714844 109.890625 238.464844 109.519531 238.144531 109.195312 C 237.824219 108.875 237.453125 108.625 237.03125 108.449219 C 236.609375 108.273438 236.171875 108.183594 235.71875 108.183594 L 87.191406 108.183594 C 86.746094 108.191406 86.316406 108.285156 85.90625 108.464844 C 85.5 108.644531 85.140625 108.898438 84.832031 109.222656 C 84.523438 109.546875 84.289062 109.914062 84.128906 110.332031 C 83.96875 110.75 83.894531 111.183594 83.90625 111.628906 Z M 83.90625 111.628906 "
      fill-opacity="1" fill-rule="nonzero" />
  </g>
  <path fill="#f1fafc"
    d="M 178.925781 147.90625 C 177.996094 147.976562 177.226562 148.359375 176.605469 149.054688 L 141.410156 187.09375 C 141.101562 187.429688 140.863281 187.8125 140.707031 188.246094 C 140.546875 188.675781 140.476562 189.117188 140.496094 189.578125 C 140.511719 190.035156 140.617188 190.472656 140.808594 190.890625 C 141 191.308594 141.261719 191.671875 141.597656 191.984375 C 141.933594 192.292969 142.316406 192.53125 142.746094 192.6875 C 143.175781 192.847656 143.617188 192.917969 144.074219 192.902344 C 144.535156 192.882812 144.96875 192.777344 145.386719 192.585938 C 145.800781 192.394531 146.164062 192.132812 146.476562 191.792969 L 146.480469 191.792969 L 181.648438 153.753906 C 181.890625 153.5 182.089844 153.21875 182.246094 152.90625 C 182.402344 152.59375 182.507812 152.265625 182.5625 151.921875 C 182.621094 151.578125 182.625 151.234375 182.578125 150.886719 C 182.53125 150.542969 182.433594 150.210938 182.285156 149.894531 C 182.136719 149.578125 181.949219 149.289062 181.714844 149.03125 C 181.480469 148.773438 181.210938 148.554688 180.910156 148.378906 C 180.613281 148.203125 180.292969 148.074219 179.953125 147.992188 C 179.613281 147.914062 179.269531 147.882812 178.925781 147.910156 Z M 178.925781 147.90625 "
    fill-opacity="1" fill-rule="nonzero" />
  <path fill="#f1fafc"
    d="M 155.488281 149.007812 C 155.316406 148.074219 155.058594 147.164062 154.710938 146.28125 C 154.359375 145.398438 153.929688 144.558594 153.414062 143.757812 C 152.898438 142.960938 152.3125 142.222656 151.652344 141.539062 C 150.992188 140.855469 150.273438 140.246094 149.492188 139.707031 C 148.714844 139.167969 147.890625 138.707031 147.019531 138.332031 C 146.148438 137.953125 145.25 137.667969 144.324219 137.46875 C 143.398438 137.269531 142.460938 137.160156 141.511719 137.148438 C 140.566406 137.132812 139.625 137.210938 138.695312 137.382812 C 137.761719 137.554688 136.855469 137.816406 135.972656 138.164062 C 135.09375 138.515625 134.253906 138.949219 133.460938 139.464844 C 132.664062 139.980469 131.925781 140.570312 131.246094 141.230469 C 130.566406 141.894531 129.957031 142.613281 129.417969 143.398438 C 128.882812 144.179688 128.425781 145.007812 128.050781 145.878906 C 127.671875 146.75 127.386719 147.652344 127.1875 148.578125 C 126.988281 149.507812 126.882812 150.449219 126.871094 151.398438 C 126.855469 152.347656 126.9375 153.289062 127.105469 154.222656 C 127.277344 155.160156 127.539062 156.066406 127.890625 156.949219 C 128.238281 157.832031 128.671875 158.671875 129.1875 159.46875 C 129.703125 160.265625 130.289062 161.007812 130.949219 161.6875 C 131.613281 162.367188 132.332031 162.980469 133.113281 163.519531 C 133.894531 164.054688 134.71875 164.515625 135.589844 164.890625 C 136.460938 165.265625 137.359375 165.550781 138.285156 165.75 C 139.210938 165.949219 140.148438 166.054688 141.097656 166.066406 C 142.042969 166.082031 142.984375 166 143.914062 165.828125 C 144.84375 165.65625 145.75 165.390625 146.625 165.039062 C 147.503906 164.6875 148.339844 164.253906 149.132812 163.734375 C 149.925781 163.21875 150.660156 162.632812 151.339844 161.96875 C 152.015625 161.308594 152.621094 160.589844 153.160156 159.808594 C 153.695312 159.027344 154.152344 158.203125 154.527344 157.332031 C 154.902344 156.464844 155.191406 155.566406 155.390625 154.640625 C 155.589844 153.710938 155.699219 152.777344 155.714844 151.828125 C 155.730469 150.878906 155.65625 149.941406 155.488281 149.007812 Z M 155.488281 149.007812 "
    fill-opacity="1" fill-rule="nonzero" />
  <path fill="#f1fafc"
    d="M 195.964844 186.613281 C 195.792969 185.679688 195.53125 184.773438 195.183594 183.890625 C 194.835938 183.007812 194.402344 182.171875 193.886719 181.375 C 193.375 180.578125 192.789062 179.839844 192.128906 179.15625 C 191.46875 178.476562 190.75 177.867188 189.96875 177.328125 C 189.191406 176.789062 188.367188 176.332031 187.496094 175.957031 C 186.628906 175.582031 185.730469 175.292969 184.804688 175.09375 C 183.878906 174.894531 182.945312 174.789062 182 174.777344 C 181.050781 174.761719 180.113281 174.839844 179.183594 175.011719 C 178.25 175.183594 177.347656 175.445312 176.464844 175.792969 C 175.585938 176.144531 174.75 176.578125 173.953125 177.09375 C 173.160156 177.609375 172.421875 178.195312 171.746094 178.859375 C 171.066406 179.519531 170.457031 180.238281 169.917969 181.019531 C 169.382812 181.800781 168.925781 182.628906 168.550781 183.5 C 168.175781 184.371094 167.890625 185.269531 167.691406 186.199219 C 167.492188 187.125 167.386719 188.0625 167.375 189.011719 C 167.359375 189.960938 167.4375 190.902344 167.609375 191.835938 C 167.78125 192.769531 168.039062 193.675781 168.390625 194.558594 C 168.738281 195.4375 169.171875 196.277344 169.683594 197.074219 C 170.199219 197.871094 170.785156 198.609375 171.445312 199.289062 C 172.105469 199.972656 172.824219 200.582031 173.601562 201.121094 C 174.382812 201.660156 175.207031 202.117188 176.074219 202.492188 C 176.945312 202.867188 177.839844 203.15625 178.765625 203.351562 C 179.691406 203.550781 180.628906 203.660156 181.574219 203.671875 C 182.519531 203.6875 183.460938 203.609375 184.390625 203.4375 C 185.320312 203.261719 186.222656 203 187.101562 202.644531 C 187.980469 202.292969 188.816406 201.859375 189.609375 201.34375 C 190.402344 200.828125 191.136719 200.238281 191.8125 199.578125 C 192.492188 198.917969 193.097656 198.195312 193.636719 197.414062 C 194.171875 196.636719 194.628906 195.808594 195.003906 194.941406 C 195.378906 194.070312 195.667969 193.171875 195.867188 192.246094 C 196.066406 191.320312 196.175781 190.382812 196.191406 189.433594 C 196.207031 188.488281 196.132812 187.546875 195.964844 186.613281 Z M 195.964844 186.613281 "
    fill-opacity="1" fill-rule="nonzero" />
</svg>