<svg width="276" height="244" viewBox="0 0 276 244" fill="none" xmlns="http://www.w3.org/2000/svg">
<g clip-path="url(#clip0_212_2519)">
<mask id="mask0_212_2519" style="mask-type:luminance" maskUnits="userSpaceOnUse" x="10" y="11" width="259" height="230">
<path d="M139.512 240.245C68.2899 240.245 10.5531 189.019 10.5531 125.827C10.5531 62.6358 68.2899 11.4091 139.512 11.4091C210.734 11.4091 268.47 62.6358 268.47 125.827C268.47 189.019 210.734 240.245 139.512 240.245Z" fill="white"/>
</mask>
<g mask="url(#mask0_212_2519)">
<path d="M139.512 240.245C68.2899 240.245 10.5531 189.019 10.5531 125.827C10.5531 62.6358 68.2899 11.4091 139.512 11.4091C210.734 11.4091 268.47 62.6358 268.47 125.827C268.47 189.019 210.734 240.245 139.512 240.245Z" fill="#FF6155"/>
<g style="mix-blend-mode:multiply" opacity="0.3">
<path d="M227.254 34.0562L190.954 187.213L201.673 189.288L246.613 46.5025L227.254 34.0562Z" fill="#4F3954"/>
</g>
<g style="mix-blend-mode:multiply" opacity="0.3">
<path d="M166.991 13.2864L164.103 170.66L175.013 170.406L188.553 21.3298L166.991 13.2864Z" fill="#4F3954"/>
</g>
<g style="mix-blend-mode:multiply" opacity="0.3">
<path d="M119.272 5.28955L133.33 162.061L144.153 160.635L141.576 10.963L119.272 5.28955Z" fill="#4F3954"/>
</g>
<g style="mix-blend-mode:multiply" opacity="0.3">
<path d="M78.4913 5.88074L101.796 161.548L112.515 159.484L101.091 10.2266L78.4913 5.88074Z" fill="#4F3954"/>
</g>
<g style="mix-blend-mode:multiply" opacity="0.3">
<path d="M256.984 69.6631L219.305 187.561L225.18 188.598L269.43 78.9978L256.984 69.6631Z" fill="#4F3954"/>
</g>
<g style="mix-blend-mode:multiply" opacity="0.3">
<path d="M271.162 109.771L232.362 182.199L236.241 185.829L276 130.168L271.162 109.771Z" fill="#4F3954"/>
</g>
<g style="mix-blend-mode:multiply" opacity="0.3">
<path d="M66.3257 22.8181L88.1057 160.246L78.2528 166.47L46.6199 30.5971L66.3257 22.8181Z" fill="#4F3954"/>
</g>
<g style="mix-blend-mode:multiply" opacity="0.3">
<path d="M32.1 47.7108L62.1772 163.358L52.8429 168.025L18.0986 64.3059L32.1 47.7108Z" fill="#4F3954"/>
</g>
<g style="mix-blend-mode:multiply" opacity="0.3">
<path d="M12.5601 82.0264L40.4749 177.521L35.035 179.517L3.66656 100.862L12.5601 82.0264Z" fill="#4F3954"/>
</g>
<g style="mix-blend-mode:multiply" opacity="0.5">
<path d="M193.511 124.946H85.6995L70.9928 6.74166L208.415 5.70447L193.511 124.946Z" fill="#4F3954"/>
</g>
<path d="M192.681 120.314H86.55L74.6229 7.77881H205.822L192.681 120.314Z" fill="#FFBC50"/>
<path d="M187.122 116.005H92.2387L81.5717 1.45715H198.868L187.122 116.005Z" fill="#ED9051"/>
<path d="M183.959 110.808H95.4748L85.5286 5.35693H194.911L183.959 110.808Z" fill="#E4F9AC"/>
<path d="M136.852 -0.00012207H142.037V118.069H136.852V-0.00012207Z" fill="#FFBC50"/>
</g>
<g style="mix-blend-mode:multiply" opacity="0.5">
<path d="M225.527 64.8246L214.119 105.275L241.774 117.032L248.692 80.3825L225.527 64.8246Z" fill="#4F3954"/>
</g>
<path d="M225.875 63.4399L217.23 103.891L244.886 115.647L250.766 80.3825L225.875 63.4399Z" fill="#DCF0F9"/>
<g style="mix-blend-mode:multiply" opacity="0.5">
<path d="M36.4195 74.1594L38.8412 109.771L62.3481 106.312L53.3613 73.1222L36.4195 74.1594Z" fill="#4F3954"/>
</g>
<path d="M36.0771 74.1593L35.04 108.734L58.5469 105.275L52.6714 72.4324L36.0771 74.1593Z" fill="url(#paint0_linear_212_2519)"/>
<g style="mix-blend-mode:multiply" opacity="0.5">
<path d="M28.729 105.275L35.4705 124.723L18.3576 126.538L17.3204 110.461L28.729 105.275Z" fill="#4F3954"/>
</g>
<path d="M28.4698 105.534L32.8777 122.648L15.7648 124.463L17.3205 109.943L28.4698 105.534Z" fill="url(#paint1_linear_212_2519)"/>
<g style="mix-blend-mode:multiply" opacity="0.5">
<path d="M259.235 133.539L246.011 127.575L236.936 147.022L253.012 153.505L259.235 133.539Z" fill="#4F3954"/>
</g>
<path d="M259.235 133.539L246.27 127.316L240.307 145.726L256.382 153.245L259.235 133.539Z" fill="#DCF0F9"/>
<path d="M122.98 115.777L124.406 103.59L126.48 102.812V99.1816L104.311 100.608L105.089 103.849L106.774 104.238L109.626 115.777H122.98Z" fill="#4D8487"/>
<g style="mix-blend-mode:multiply" opacity="0.5">
<path d="M122.072 115.777L120.905 105.146L126.48 102.682L119.998 102.423L117.924 99.7003L104.311 100.608L105.089 103.849L106.774 104.238L109.626 115.777H122.072Z" fill="#4F3954"/>
</g>
<path d="M123.498 99.3114C123.498 99.3114 129.721 93.7364 126.48 92.9585C123.239 92.1806 121.294 91.9213 119.998 93.9957C118.701 96.0701 124.146 88.1615 120.776 86.2168C117.405 84.272 113.516 84.1424 112.997 87.254C112.479 90.3656 111.96 92.8289 111.96 92.8289C111.96 92.8289 107.422 86.0871 105.607 89.0691C103.792 92.051 101.589 95.5515 104.181 96.9777C106.774 98.4038 107.034 100.349 107.034 100.349L123.498 99.3114Z" fill="#B4C64A"/>
<g opacity="0.6">
<g style="mix-blend-mode:overlay">
<path d="M121.611 92.4244C122.684 92.2947 124.017 92.554 125.702 92.9585C131.028 94.2343 118.961 97.8852 121.611 92.4244Z" fill="#FFF2D0"/>
</g>
<g style="mix-blend-mode:overlay">
<path d="M112.997 87.254C113.516 84.1424 117.405 84.272 120.776 86.2168C122.228 87.0517 122.041 88.9965 121.466 90.7701C118.266 93.5342 119.22 85.3092 112.997 87.254Z" fill="#FFF2D0"/>
</g>
<g style="mix-blend-mode:overlay">
<path d="M104.078 91.6932C104.539 90.8167 105.089 89.9247 105.607 89.0691C107.142 86.5487 110.622 90.9723 111.659 92.4036C110.757 95.1366 108.2 89.0691 104.078 91.6932Z" fill="#FFF2D0"/>
</g>
</g>
<g style="mix-blend-mode:multiply" opacity="0.3">
<path d="M51.9765 77.442L52.4951 79.5164L37.804 81.7671V79.3453L51.9765 77.442Z" fill="#4F3954"/>
</g>
<g style="mix-blend-mode:multiply" opacity="0.3">
<path d="M52.1477 82.2858L52.6663 84.3602L37.9751 86.6057V84.1838L52.1477 82.2858Z" fill="#4F3954"/>
</g>
<g style="mix-blend-mode:multiply" opacity="0.3">
<path d="M247.857 81.1033L247.328 83.6341L226.113 74.4342L227.55 71.9501L247.857 81.1033Z" fill="#4F3954"/>
</g>
<g style="mix-blend-mode:multiply" opacity="0.3">
<path d="M245.954 86.9791L245.425 89.515L224.216 80.3099L225.647 77.8311L245.954 86.9791Z" fill="#4F3954"/>
</g>
<g style="mix-blend-mode:multiply" opacity="0.3">
<path d="M244.917 92.5125L244.388 95.0432L223.178 85.8433L224.61 83.3593L244.917 92.5125Z" fill="#4F3954"/>
</g>
<g style="mix-blend-mode:multiply" opacity="0.3">
<path d="M243.19 99.944L242.661 102.48L221.446 93.2748L222.883 90.7959L243.19 99.944Z" fill="#4F3954"/>
</g>
<g style="mix-blend-mode:multiply" opacity="0.3">
<path d="M234.063 104.72L233.441 106.701L221.203 102.164L222.39 100.115L234.063 104.72Z" fill="#4F3954"/>
</g>
<g style="mix-blend-mode:multiply" opacity="0.3">
<path d="M257.788 134.996L257.212 136.79L246.27 132.761L247.344 130.899L257.788 134.996Z" fill="#4F3954"/>
</g>
<g style="mix-blend-mode:multiply" opacity="0.3">
<path d="M256.403 139.145L255.833 140.939L244.886 136.91L245.959 135.048L256.403 139.145Z" fill="#4F3954"/>
</g>
<g style="mix-blend-mode:multiply" opacity="0.3">
<path d="M255.133 145.083L254.765 146.276L247.308 143.48L248.018 142.251L255.133 145.083Z" fill="#4F3954"/>
</g>
<g style="mix-blend-mode:multiply" opacity="0.3">
<path d="M47.4132 98.6631L47.4651 100.758L38.7894 101.998L39.0746 99.5914L47.4132 98.6631Z" fill="#4F3954"/>
</g>
<g style="mix-blend-mode:multiply" opacity="0.3">
<path d="M27.7074 109.382L27.7593 111.478L19.0836 112.712L19.3688 110.311L27.7074 109.382Z" fill="#4F3954"/>
</g>
<g style="mix-blend-mode:multiply" opacity="0.3">
<path d="M28.226 114.05L28.2778 116.145L19.6021 117.379L19.8873 114.978L28.226 114.05Z" fill="#4F3954"/>
</g>
<g style="mix-blend-mode:multiply" opacity="0.3">
<path d="M23.6626 119.972L23.2166 122.005L17.3619 122.503L18.0983 120.195L23.6626 119.972Z" fill="#4F3954"/>
</g>
<g style="mix-blend-mode:multiply" opacity="0.3">
<path d="M50.7684 91.7916C52.4849 91.7916 53.8799 93.1867 53.8799 94.9032C53.8799 96.6198 52.4849 98.0148 50.7684 98.0148C49.052 98.0148 47.657 96.6198 47.657 94.9032C47.657 93.1867 49.052 91.7916 50.7684 91.7916ZM50.7684 97.1436C52.0078 97.1436 53.0087 96.1427 53.0087 94.9032C53.0087 93.6638 52.0078 92.6629 50.7684 92.6629C49.5291 92.6629 48.5282 93.6638 48.5282 94.9032C48.5282 96.1427 49.5291 97.1436 50.7684 97.1436Z" fill="#4F3954"/>
</g>
<g style="mix-blend-mode:overlay" opacity="0.5">
<path d="M133.221 56.527L87.8463 31.8937L87.587 20.7438L108.33 14.5207L133.74 11.1498L133.221 56.527Z" fill="#FFF2D0"/>
</g>
<g style="mix-blend-mode:overlay" opacity="0.5">
<path d="M146.01 11.9277L186.806 19.1881L181.521 83.1156L145.667 63.1703L146.01 11.9277Z" fill="#FFF2D0"/>
</g>
<path d="M9.15527e-05 195.615C84.9319 260.948 203.524 258.298 269.788 198.654C231.029 155.33 183.912 143.932 142.872 139.373C124.634 139.373 70.6764 140.893 9.15527e-05 195.615Z" fill="url(#paint2_linear_212_2519)"/>
<path d="M9.15527e-05 193.209C84.9319 258.541 203.524 255.886 269.788 196.248C231.029 152.929 183.912 141.525 142.872 136.967C124.634 136.967 70.6764 138.486 9.15527e-05 193.209Z" fill="url(#paint3_linear_212_2519)"/>
<g style="mix-blend-mode:multiply" opacity="0.5">
<path d="M237.838 208.455C239.249 209.093 240.26 210.379 240.545 211.904C240.831 213.429 240.354 214.995 239.27 216.099L221.716 233.97C219.637 236.091 216.375 236.506 213.829 234.976L171.497 209.575C170.336 208.875 169.579 207.657 169.47 206.308C169.361 204.955 169.916 203.632 170.953 202.761L186.593 189.62C188.647 187.898 191.504 187.499 193.946 188.603L237.833 208.45L237.838 208.455Z" fill="#4F3954"/>
</g>
<g style="mix-blend-mode:multiply" opacity="0.5">
<path d="M152.927 222.364C156.5 212.697 174.868 213.434 180.152 222.364C175.236 230.698 159.072 232.171 152.927 222.364Z" fill="#4F3954"/>
</g>
<g style="mix-blend-mode:multiply" opacity="0.5">
<path d="M143.245 221.498C146.808 211.639 165.119 211.406 170.382 220.056C165.482 228.655 149.37 230.978 143.245 221.498Z" fill="#4F3954"/>
</g>
<g style="mix-blend-mode:multiply" opacity="0.5">
<path d="M153.529 221.664C157.102 211.997 175.47 212.734 180.754 221.664C175.838 229.998 159.674 231.471 153.529 221.664Z" fill="#4F3954"/>
</g>
<g style="mix-blend-mode:multiply" opacity="0.5">
<path d="M69.074 184.584C68.4672 185.616 42.4453 216.405 42.4453 216.405L10.1278 197.331L41.4185 172.356L69.074 184.584Z" fill="#4F3954"/>
</g>
<g style="mix-blend-mode:multiply" opacity="0.5">
<path d="M75.2656 146.478L181.329 169.944L112.126 210.115L70.7541 187.846L82.4894 177.62L50.4467 160.169L75.2656 146.478Z" fill="#4F3954"/>
</g>
<path d="M68.9548 183.262C68.348 184.294 42.3261 215.083 42.3261 215.083L12.2385 196.73L42.6268 172.656L68.96 183.262H68.9548Z" fill="#DCF0F9"/>
<mask id="mask1_212_2519" style="mask-type:luminance" maskUnits="userSpaceOnUse" x="0" y="136" width="270" height="106">
<path d="M9.15527e-05 193.209C84.9319 258.541 203.524 255.886 269.788 196.248C231.029 152.929 183.912 141.525 142.872 136.967C124.634 136.967 70.6764 138.486 9.15527e-05 193.209Z" fill="white"/>
</mask>
<g mask="url(#mask1_212_2519)">
<g style="mix-blend-mode:multiply" opacity="0.5">
<path d="M39.3132 146.478L116.638 161.823L158.963 167.331C163.086 162.928 175.848 159.718 190.954 159.718C209.4 159.718 224.35 164.499 224.35 170.401C224.35 176.302 209.4 181.084 190.954 181.084C184.202 181.084 177.923 180.441 172.669 179.341L110.467 214.035L63.9817 191.321L63.3802 182.593L50.7425 184.698L28.781 165.142L39.3132 146.488V146.478Z" fill="#4F3954"/>
</g>
</g>
<g style="mix-blend-mode:multiply" opacity="0.5">
<path d="M48.1184 146.296L83.5421 126.465L116.637 140.607L48.1184 146.296Z" fill="#4F3954"/>
</g>
<path d="M238.741 206.951C240.151 207.589 241.162 208.875 241.447 210.4C241.733 211.925 241.256 213.491 240.172 214.596L222.618 232.466C220.539 234.587 217.277 235.002 214.731 233.472L172.4 208.072C171.238 207.371 170.481 206.153 170.372 204.804C170.263 203.451 170.818 202.128 171.855 201.257L187.495 188.116C189.549 186.394 192.406 186 194.849 187.105L238.735 206.951H238.741Z" fill="#75A5BF"/>
<path d="M117.192 156.367L116.71 140.54L83.6148 127.108L48.1185 146.296L51.4788 159.246L82.1783 176.992L117.192 156.367Z" fill="url(#paint4_linear_212_2519)"/>
<g style="mix-blend-mode:multiply" opacity="0.5">
<path d="M61.0777 139.052C61.0777 139.052 65.807 149.932 67.2746 153.064L82.4377 158.815L83.3918 176.282L82.1784 176.997L51.4789 159.251L48.1237 146.301L61.0777 139.062V139.052Z" fill="#4F3954"/>
</g>
<path d="M116.71 140.54L117.54 159.214L82.0383 177.469L82.4376 158.815L116.71 140.54Z" fill="url(#paint5_linear_212_2519)"/>
<g style="mix-blend-mode:multiply" opacity="0.5">
<path d="M177.881 164.878C177.881 160.309 185.437 156.601 194.755 156.601C204.074 156.601 211.625 160.309 211.625 164.878C211.625 169.446 204.069 173.154 194.755 173.154C185.442 173.154 177.881 169.446 177.881 164.878Z" fill="#4F3954"/>
</g>
<path d="M169.521 139.575C169.521 132.714 180.951 127.15 195.051 127.15C209.151 127.15 220.575 132.709 220.575 139.575C220.575 139.928 220.539 140.27 220.476 140.612C220.513 140.841 220.523 141.069 220.539 141.297C221.311 141.318 222.089 141.39 222.857 141.525C229.551 142.708 233.228 147.914 231.066 153.152C228.903 158.395 221.726 161.683 215.031 160.506C214.482 160.407 213.958 160.272 213.45 160.127C213.242 160.589 213.061 160.998 212.952 161.31C211.277 166.081 204.935 170.525 195.051 170.525C185.167 170.525 178.425 166.366 177.15 161.31C176.284 157.877 169.527 147.074 169.527 141.65C169.527 141.297 169.563 140.955 169.625 140.612C169.568 140.27 169.527 139.928 169.527 139.575H169.521ZM223.681 152.602C226.155 148.78 224.625 148.744 219.268 147.79C218.003 152.022 216.924 153.214 215.26 156.616C220.274 156.217 221.477 156.015 223.686 152.608L223.681 152.602Z" fill="url(#paint6_linear_212_2519)"/>
<path d="M179.52 194.827L234.136 220.736L224.065 230.994L173.017 200.287L179.52 194.827Z" fill="#512E20"/>
<path style="mix-blend-mode:overlay" d="M238.621 206.599C239.99 207.221 240.976 208.471 241.25 209.949C241.525 211.427 241.064 212.946 240.011 214.02L222.971 231.372C220.954 233.431 217.785 233.835 215.311 232.352L174.215 207.693C173.084 207.014 172.353 205.831 172.249 204.519C172.145 203.207 172.68 201.921 173.691 201.076L188.875 188.318C190.866 186.643 193.645 186.259 196.015 187.333L238.621 206.599Z" fill="url(#paint7_linear_212_2519)"/>
<g style="mix-blend-mode:multiply" opacity="0.5">
<path d="M233.28 183.843C234.779 184.237 235.992 185.336 236.526 186.788C237.06 188.24 236.853 189.869 235.971 191.139L221.664 211.702C219.968 214.139 216.826 215.099 214.057 214.02L168.064 196.082C166.799 195.589 165.85 194.515 165.518 193.198C165.186 191.881 165.508 190.486 166.389 189.454L179.603 173.875C181.335 171.832 184.088 170.961 186.681 171.64L233.275 183.838L233.28 183.843Z" fill="#4F3954"/>
</g>
<path d="M232.979 182.339C234.478 182.733 235.691 183.832 236.226 185.284C236.76 186.736 236.552 188.365 235.671 189.635L221.363 210.203C219.668 212.64 216.525 213.6 213.756 212.516L167.764 194.578C166.498 194.085 165.549 193.012 165.217 191.694C164.885 190.377 165.207 188.982 166.089 187.95L179.302 172.371C181.034 170.328 183.787 169.457 186.38 170.136L232.974 182.339H232.979Z" fill="url(#paint8_linear_212_2519)"/>
<path style="mix-blend-mode:overlay" d="M232.45 182.137C233.918 182.52 235.105 183.599 235.629 185.02C236.153 186.441 235.951 188.033 235.085 189.272L221.088 209.389C219.429 211.774 216.354 212.708 213.647 211.655L168.661 194.111C167.421 193.629 166.498 192.576 166.172 191.29C165.845 190.004 166.161 188.64 167.022 187.623L179.95 172.387C181.646 170.385 184.337 169.54 186.878 170.204L232.45 182.137Z" fill="url(#paint9_linear_212_2519)"/>
<path style="mix-blend-mode:overlay" d="M173.11 133.243C177.559 129.597 185.706 127.15 195.046 127.15C209.146 127.15 220.57 132.709 220.57 139.575C220.57 139.928 220.534 140.27 220.471 140.612C220.508 140.841 220.518 141.069 220.534 141.297C221.306 141.318 222.084 141.39 222.852 141.525C229.546 142.708 233.223 147.914 231.061 153.152C228.898 158.395 221.721 161.683 215.026 160.506C214.477 160.407 213.953 160.272 213.445 160.127C213.237 160.589 213.056 160.999 212.947 161.31C211.63 165.059 207.424 168.596 200.895 169.944L190.379 149.797L173.11 133.248V133.243ZM224.48 151.799C225.081 148.988 224.62 148.744 219.263 147.785C217.998 152.016 217.121 153.209 215.452 156.611C221.467 156.611 222.872 154.407 224.48 151.799Z" fill="url(#paint10_linear_212_2519)"/>
<g style="mix-blend-mode:hard-light" opacity="0.5">
<path d="M170.621 140.161C170.621 124.577 219.87 124.557 219.87 140.161C218.662 151.394 179.25 155.304 170.621 140.161Z" fill="#4F3954"/>
</g>
<path d="M172.628 139.357C176.237 126.216 215.052 127.72 217.863 139.357C213.247 150.891 176.237 149.086 172.628 139.357Z" fill="#875848"/>
<g style="mix-blend-mode:multiply" opacity="0.8">
<path d="M216.006 142.007C207.538 150.17 178.467 148.428 173.183 140.415C181.226 131.283 210.79 132.787 216.006 142.007Z" fill="#4F3954"/>
</g>
<g style="mix-blend-mode:multiply" opacity="0.3">
<path d="M215.451 156.409C222.649 156.409 229.188 147.883 219.553 147.831L220.425 145.964C220.425 145.964 220.451 145.975 220.466 145.975C234.711 146.073 223.437 159.085 214.248 158.11L215.451 156.404V156.409Z" fill="#4F3954"/>
</g>
<path d="M154.27 220.046C157.843 210.379 176.211 211.116 181.495 220.046C176.579 228.38 160.415 229.853 154.27 220.046Z" fill="url(#paint11_linear_212_2519)"/>
<path d="M154.13 221.161C157.703 211.494 176.071 212.231 181.355 221.161C176.439 229.495 160.275 230.968 154.13 221.161Z" fill="url(#paint12_linear_212_2519)"/>
<path d="M170.419 213.367L175.49 225.196C173.297 226.202 170.813 226.772 168.292 226.85L161.572 213.823C164.299 213.004 167.421 212.858 170.424 213.361L170.419 213.367Z" fill="#FFF140"/>
<path d="M181.49 220.046C180.438 221.83 178.866 223.298 176.994 224.407L172.607 213.849C176.356 214.896 179.686 216.991 181.49 220.046Z" fill="#FFF140"/>
<path style="mix-blend-mode:multiply" opacity="0.4" d="M155.764 220.248C158.87 211.847 174.832 212.485 179.421 220.248C175.148 227.493 161.1 228.769 155.764 220.248Z" fill="url(#paint13_linear_212_2519)"/>
<path d="M143.588 220.679C145.029 210.473 163.138 207.299 170.19 214.912C167.157 224.101 151.667 228.961 143.588 220.679Z" fill="url(#paint14_linear_212_2519)"/>
<path d="M143.686 221.799C145.128 211.593 163.236 208.419 170.289 216.032C167.25 225.222 151.766 230.081 143.686 221.799Z" fill="url(#paint15_linear_212_2519)"/>
<path d="M157.957 210.727L165.42 221.213C163.491 222.66 161.183 223.744 158.735 224.356L149.406 213.05C151.895 211.671 154.919 210.872 157.957 210.727Z" fill="#FFF140"/>
<path d="M170.191 214.912C169.542 216.877 168.319 218.646 166.721 220.129L160.198 210.742C164.082 210.976 167.784 212.314 170.196 214.912H170.191Z" fill="#FFF140"/>
<path style="mix-blend-mode:multiply" opacity="0.4" d="M145.086 220.559C146.341 211.691 162.08 208.932 168.209 215.544C165.57 223.531 152.108 227.752 145.086 220.559Z" fill="url(#paint16_linear_212_2519)"/>
<path d="M180.878 169.944L112.126 208.611L71.8173 185.653L70.8061 178.698L133.605 144.46L181.532 166.252L180.878 169.944Z" fill="url(#paint17_linear_212_2519)"/>
<path d="M192.007 178.2L189.129 183.06L179.587 180.721L182.647 174.959L192.007 178.2Z" fill="#F2CC53"/>
<path d="M226.238 187.743L222.006 193.027L212.07 190.699L215.026 184.781L226.238 187.743Z" fill="#D9FFFF"/>
<g opacity="0.3">
<g style="mix-blend-mode:overlay">
<path d="M227.456 180.887L188.19 201.491L168.951 193.986C167.727 193.509 166.804 192.467 166.483 191.191C166.446 191.051 166.446 190.906 166.426 190.761L205.791 175.213L227.462 180.887H227.456Z" fill="#FFF2D0"/>
</g>
<g style="mix-blend-mode:overlay">
<path d="M235.318 184.978C235.837 186.389 235.634 187.966 234.779 189.195L220.907 209.135C219.263 211.499 216.214 212.428 213.533 211.38L199.521 205.914L232.357 182.199C233.716 182.624 234.82 183.635 235.318 184.978Z" fill="#FFF2D0"/>
</g>
</g>
<path style="mix-blend-mode:overlay" opacity="0.8" d="M175.936 140.861C175.936 138.699 182.133 136.951 189.777 136.951C197.421 136.951 203.618 138.704 203.618 140.861C203.618 143.019 197.421 144.772 189.777 144.772C182.133 144.772 175.936 143.019 175.936 140.861Z" fill="url(#paint18_linear_212_2519)"/>
<path style="mix-blend-mode:overlay" opacity="0.8" d="M206.563 131.49L202.036 135.006C191.436 133.186 178.171 134.752 173.183 140.415C174.666 142.661 178.016 144.414 182.253 145.591C177.357 144.232 173.649 142.116 172.623 139.357C175.086 130.391 193.936 128.249 206.558 131.485L206.563 131.49Z" fill="url(#paint19_linear_212_2519)"/>
<path style="mix-blend-mode:overlay" opacity="0.8" d="M187.06 146.628C186.998 146.623 186.935 146.607 186.873 146.597C186.935 146.607 187.003 146.618 187.065 146.628H187.06Z" fill="url(#paint20_linear_212_2519)"/>
<path style="mix-blend-mode:overlay" opacity="0.8" d="M183.912 146.011C184.296 146.099 184.679 146.182 185.073 146.265C184.679 146.187 184.296 146.099 183.912 146.011Z" fill="url(#paint21_linear_212_2519)"/>
<path style="mix-blend-mode:overlay" opacity="0.8" d="M185.39 146.327C185.81 146.41 186.24 146.488 186.671 146.561C186.24 146.488 185.815 146.41 185.39 146.327Z" fill="url(#paint22_linear_212_2519)"/>
<path d="M82.4375 158.815C67.5908 154.049 50.5919 147.282 49.2385 130.629C49.2385 130.629 54.782 143.522 64.6349 137.47C65.2364 143.185 82.4323 158.81 82.4323 158.81L82.4375 158.815Z" fill="url(#paint23_linear_212_2519)"/>
<path d="M70.8268 178.833L70.8061 178.698L133.486 145.269L181.532 166.252L112.525 203.544L70.8268 178.833Z" fill="url(#paint24_linear_212_2519)"/>
<path d="M168.391 167.237L133.486 149.486L86.2492 175.965L115.735 194.018L168.391 167.237Z" fill="#2D4F68"/>
<path d="M103.528 188.474L97.6838 191.912L87.0219 185.72L93.2137 182.282L103.528 188.474Z" fill="#2D4F68"/>
<path d="M100.676 187.732L96.6828 189.703L91.3881 186.244L94.3596 184.387L100.676 187.732Z" fill="url(#paint25_linear_212_2519)"/>
<path d="M111.975 208.611L112.525 203.544L70.806 178.698L72.0091 186.296L111.975 208.611Z" fill="url(#paint26_linear_212_2519)"/>
<g style="mix-blend-mode:multiply" opacity="0.5">
<path d="M112.525 203.544L71.2053 181.68L70.806 178.698L112.525 203.544Z" fill="#4F3954"/>
</g>
<g style="mix-blend-mode:multiply" opacity="0.5">
<path d="M96.491 195.454L96.3095 199.069L82.9303 191.113L83.4748 187.862L96.491 195.454Z" fill="#4F3954"/>
</g>
<g style="mix-blend-mode:multiply" opacity="0.5">
<path d="M84.9268 188.707L96.491 195.454L96.3613 197.954L84.5586 190.932L84.9268 188.707Z" fill="#4F3954"/>
</g>
<g style="mix-blend-mode:multiply" opacity="0.5">
<path d="M112.427 205.001L181.179 167.989L181.532 166.252L112.525 203.544L112.427 205.001Z" fill="#4F3954"/>
</g>
<g style="mix-blend-mode:overlay">
<path d="M158.663 171.853L103.502 167.439L92.669 173.455L134.191 184.486L158.663 171.853Z" fill="#FFF2D0"/>
</g>
<g style="mix-blend-mode:overlay">
<path d="M149.836 159.012L110.321 163.228L134.191 151.192L149.836 159.012Z" fill="#FFF2D0"/>
</g>
<g style="mix-blend-mode:multiply" opacity="0.5">
<path d="M163.076 176.665C163.076 176.665 154.047 162.425 157.46 155.6C165.684 159.209 181.532 166.247 181.532 166.247L163.076 176.66V176.665Z" fill="#4F3954"/>
</g>
<path d="M160.784 158.468L158.564 160.179L142.411 153.038L144.63 151.43L160.784 158.468Z" fill="#2D4F68"/>
<g style="mix-blend-mode:overlay" opacity="0.2">
<path d="M48.1185 146.296L82.7903 158.96L49.2438 150.839L48.1185 146.296Z" fill="#FFF2D0"/>
</g>
<path style="mix-blend-mode:overlay" d="M114.683 140.156L81.7377 158.66L67.7466 151.892L61.1244 142.562L114.683 140.156Z" fill="url(#paint27_linear_212_2519)"/>
<path d="M106.712 145.726L76.6192 130.832L83.6147 127.108L116.036 140.908L106.712 145.726Z" fill="url(#paint28_linear_212_2519)"/>
<g style="mix-blend-mode:multiply" opacity="0.3">
<path d="M80.0314 165.832L57.5668 157.607L80.8352 168.44L80.0314 165.832Z" fill="#4F3954"/>
</g>
<g style="mix-blend-mode:multiply" opacity="0.3">
<path d="M116.71 140.54L82.0382 161.066L82.4375 158.815L116.71 140.54Z" fill="#4F3954"/>
</g>
<g style="mix-blend-mode:multiply" opacity="0.5">
<path d="M62.3792 186.296L60.3723 188.899L50.3431 183.687L52.9515 181.68L62.3792 186.296Z" fill="#4F3954"/>
</g>
<g style="mix-blend-mode:multiply" opacity="0.5">
<path d="M55.9592 190.304L53.9524 193.312L32.6909 182.883L35.5015 180.477L55.9592 190.304Z" fill="#4F3954"/>
</g>
<g style="mix-blend-mode:multiply" opacity="0.5">
<path d="M51.5461 195.122L49.5393 198.13L28.2778 187.696L31.0884 185.29L51.5461 195.122Z" fill="#4F3954"/>
</g>
<g style="mix-blend-mode:multiply" opacity="0.5">
<path d="M48.1392 200.168L46.8427 202.144L33.0954 195.299L34.9104 193.717L48.1392 200.168Z" fill="#4F3954"/>
</g>
<g style="mix-blend-mode:multiply" opacity="0.5">
<path d="M31.8923 201.371L30.5907 203.347L16.8485 196.502L18.6636 194.92L31.8923 201.371Z" fill="#4F3954"/>
</g>
<path style="mix-blend-mode:overlay" opacity="0.8" d="M191.058 133.731C191.058 133.731 200.6 126.968 194.714 121.015C188.828 115.061 186.142 112.888 188.066 106.924C189.99 100.96 193.231 96.4124 193.231 96.4124C193.231 96.4124 180.992 110.637 182.59 116.498C184.187 122.358 193.718 123.665 191.063 133.731H191.058Z" fill="url(#paint29_linear_212_2519)"/>
<path style="mix-blend-mode:overlay" opacity="0.8" d="M201.222 113.832C201.222 113.832 206.076 109.424 206.076 105.016C206.076 100.608 202.498 98.0149 200.963 90.2359C199.428 82.4569 201.476 100.867 202.498 103.719C203.519 106.572 201.222 113.832 201.222 113.832Z" fill="url(#paint30_linear_212_2519)"/>
<g style="mix-blend-mode:multiply" opacity="0.5">
<path d="M157.812 158.665L156.843 159.417L145.019 154.189L145.968 153.505L157.812 158.665Z" fill="#4F3954"/>
</g>
<g style="mix-blend-mode:multiply" opacity="0.5">
<path d="M20.4007 187.711C23.7403 178.667 40.9259 179.357 45.873 187.711C41.2733 195.511 26.1517 196.885 20.4007 187.711Z" fill="#4F3954"/>
</g>
<g style="mix-blend-mode:multiply" opacity="0.5">
<path d="M20.9659 187.053C24.3055 178.008 41.4962 178.698 46.4382 187.053C41.8385 194.852 26.7169 196.227 20.9659 187.053Z" fill="#4F3954"/>
</g>
<path d="M21.6547 185.544C24.9943 176.499 42.1798 177.184 47.1218 185.544C42.5221 193.343 27.4005 194.718 21.6547 185.544Z" fill="url(#paint31_linear_212_2519)"/>
<path d="M21.526 186.586C24.8656 177.542 42.0511 178.232 46.9983 186.586C42.3986 194.386 27.277 195.76 21.526 186.586Z" fill="url(#paint32_linear_212_2519)"/>
<path d="M36.7668 179.29L41.5117 190.356C39.4634 191.295 37.135 191.834 34.7754 191.907L28.4903 179.72C31.0417 178.952 33.9613 178.818 36.772 179.29H36.7668Z" fill="#FFF140"/>
<path d="M47.1279 185.544C46.1426 187.214 44.6751 188.588 42.9223 189.625L38.8152 179.746C42.3208 180.726 45.4374 182.686 47.1279 185.544Z" fill="#FFF140"/>
<path style="mix-blend-mode:multiply" opacity="0.4" d="M23.0557 185.73C25.9597 177.869 40.8946 178.47 45.1936 185.73C41.1954 192.509 28.0548 193.701 23.0557 185.73Z" fill="url(#paint33_linear_212_2519)"/>
</g>
<defs>
<linearGradient id="paint0_linear_212_2519" x1="58.5469" y1="90.5833" x2="35.04" y2="90.5833" gradientUnits="userSpaceOnUse">
<stop stop-color="#FFF9B3"/>
<stop offset="1" stop-color="#D1E0B7"/>
</linearGradient>
<linearGradient id="paint1_linear_212_2519" x1="32.8777" y1="114.999" x2="15.7648" y2="114.999" gradientUnits="userSpaceOnUse">
<stop stop-color="#FFF9B3"/>
<stop offset="1" stop-color="#D1E0B7"/>
</linearGradient>
<linearGradient id="paint2_linear_212_2519" x1="135.498" y1="233.25" x2="133.895" y2="137.771" gradientUnits="userSpaceOnUse">
<stop offset="0.06" stop-color="#FF7410"/>
<stop offset="1" stop-color="#FFDA40"/>
</linearGradient>
<linearGradient id="paint3_linear_212_2519" x1="212.231" y1="106.338" x2="111.13" y2="221.877" gradientUnits="userSpaceOnUse">
<stop stop-color="#FF981D"/>
<stop offset="1" stop-color="#FFE266"/>
</linearGradient>
<linearGradient id="paint4_linear_212_2519" x1="93.2706" y1="153.375" x2="55.5081" y2="148.558" gradientUnits="userSpaceOnUse">
<stop stop-color="#FFF9B3"/>
<stop offset="0.72" stop-color="#E7ECB5"/>
<stop offset="1" stop-color="#D1E0B7"/>
</linearGradient>
<linearGradient id="paint5_linear_212_2519" x1="91.8964" y1="182.914" x2="100.526" y2="157.441" gradientUnits="userSpaceOnUse">
<stop stop-color="#FFF9B3"/>
<stop offset="1" stop-color="#D1E0B7"/>
</linearGradient>
<linearGradient id="paint6_linear_212_2519" x1="204.997" y1="120.045" x2="193.261" y2="186.394" gradientUnits="userSpaceOnUse">
<stop stop-color="#FFF9B3"/>
<stop offset="0.84" stop-color="#997862"/>
<stop offset="1" stop-color="#896355"/>
</linearGradient>
<linearGradient id="paint7_linear_212_2519" x1="241.328" y1="209.985" x2="172.234" y2="209.985" gradientUnits="userSpaceOnUse">
<stop stop-color="#FFF8A8"/>
<stop offset="1" stop-color="#FFF3AA"/>
</linearGradient>
<linearGradient id="paint8_linear_212_2519" x1="140.424" y1="242.828" x2="234.3" y2="162.196" gradientUnits="userSpaceOnUse">
<stop stop-color="#652E72"/>
<stop offset="1" stop-color="#BB74D6"/>
</linearGradient>
<linearGradient id="paint9_linear_212_2519" x1="251.337" y1="187.696" x2="170.631" y2="192.995" gradientUnits="userSpaceOnUse">
<stop stop-color="#FFF8A8"/>
<stop offset="1" stop-color="#FFF3AA"/>
</linearGradient>
<linearGradient id="paint10_linear_212_2519" x1="183.103" y1="160.724" x2="220.717" y2="127.328" gradientUnits="userSpaceOnUse">
<stop stop-color="#CBEFFF"/>
<stop offset="1" stop-color="#FFC884"/>
</linearGradient>
<linearGradient id="paint11_linear_212_2519" x1="232.347" y1="219.963" x2="150.365" y2="219.963" gradientUnits="userSpaceOnUse">
<stop stop-color="#7F2300"/>
<stop offset="1" stop-color="#E5DC9E"/>
</linearGradient>
<linearGradient id="paint12_linear_212_2519" x1="232.212" y1="221.078" x2="150.225" y2="221.078" gradientUnits="userSpaceOnUse">
<stop stop-color="#7F2300"/>
<stop offset="1" stop-color="#E5DC9E"/>
</linearGradient>
<linearGradient id="paint13_linear_212_2519" x1="223.619" y1="220.176" x2="152.367" y2="220.176" gradientUnits="userSpaceOnUse">
<stop stop-color="#7F2300"/>
<stop offset="1" stop-color="#E5DC9E"/>
</linearGradient>
<linearGradient id="paint14_linear_212_2519" x1="219.864" y1="204.05" x2="139.738" y2="221.417" gradientUnits="userSpaceOnUse">
<stop stop-color="#7F2300"/>
<stop offset="1" stop-color="#E5DC9E"/>
</linearGradient>
<linearGradient id="paint15_linear_212_2519" x1="219.964" y1="205.17" x2="139.843" y2="222.536" gradientUnits="userSpaceOnUse">
<stop stop-color="#7F2300"/>
<stop offset="1" stop-color="#E5DC9E"/>
</linearGradient>
<linearGradient id="paint16_linear_212_2519" x1="211.38" y1="206.107" x2="141.744" y2="221.2" gradientUnits="userSpaceOnUse">
<stop stop-color="#7F2300"/>
<stop offset="1" stop-color="#E5DC9E"/>
</linearGradient>
<linearGradient id="paint17_linear_212_2519" x1="181.532" y1="176.536" x2="70.8061" y2="176.536" gradientUnits="userSpaceOnUse">
<stop stop-color="#4A5B5B"/>
<stop offset="1" stop-color="#749998"/>
</linearGradient>
<linearGradient id="paint18_linear_212_2519" x1="234.006" y1="140.861" x2="206.325" y2="140.861" gradientUnits="userSpaceOnUse">
<stop stop-color="#CBEFFF"/>
<stop offset="1" stop-color="#FFC884"/>
</linearGradient>
<linearGradient id="paint19_linear_212_2519" x1="159.995" y1="161.839" x2="212.555" y2="113.497" gradientUnits="userSpaceOnUse">
<stop stop-color="#CBEFFF"/>
<stop offset="1" stop-color="#FFC884"/>
</linearGradient>
<linearGradient id="paint20_linear_212_2519" x1="186.852" y1="146.716" x2="187.06" y2="146.53" gradientUnits="userSpaceOnUse">
<stop stop-color="#CBEFFF"/>
<stop offset="1" stop-color="#FFC884"/>
</linearGradient>
<linearGradient id="paint21_linear_212_2519" x1="183.844" y1="146.732" x2="185.017" y2="145.658" gradientUnits="userSpaceOnUse">
<stop stop-color="#CBEFFF"/>
<stop offset="1" stop-color="#FFC884"/>
</linearGradient>
<linearGradient id="paint22_linear_212_2519" x1="185.286" y1="147.126" x2="186.629" y2="145.897" gradientUnits="userSpaceOnUse">
<stop stop-color="#CBEFFF"/>
<stop offset="1" stop-color="#FFC884"/>
</linearGradient>
<linearGradient id="paint23_linear_212_2519" x1="93.9031" y1="148.298" x2="56.1925" y2="143.491" gradientUnits="userSpaceOnUse">
<stop stop-color="#FFF9B3"/>
<stop offset="1" stop-color="#D1E0B7"/>
</linearGradient>
<linearGradient id="paint24_linear_212_2519" x1="181.532" y1="174.409" x2="69.1985" y2="174.409" gradientUnits="userSpaceOnUse">
<stop stop-color="#EADCC0"/>
<stop offset="1" stop-color="#DCF0F9"/>
</linearGradient>
<linearGradient id="paint25_linear_212_2519" x1="100.676" y1="187.048" x2="91.383" y2="187.048" gradientUnits="userSpaceOnUse">
<stop stop-color="#EADCC0"/>
<stop offset="1" stop-color="#DCF0F9"/>
</linearGradient>
<linearGradient id="paint26_linear_212_2519" x1="112.525" y1="193.655" x2="275.481" y2="193.655" gradientUnits="userSpaceOnUse">
<stop stop-color="#4A5B5B"/>
<stop offset="1" stop-color="#749998"/>
</linearGradient>
<linearGradient id="paint27_linear_212_2519" x1="76.889" y1="167.854" x2="90.2745" y2="135.66" gradientUnits="userSpaceOnUse">
<stop stop-color="#FFF8A8"/>
<stop offset="1" stop-color="#FFF3AA"/>
</linearGradient>
<linearGradient id="paint28_linear_212_2519" x1="116.036" y1="136.417" x2="76.6192" y2="136.417" gradientUnits="userSpaceOnUse">
<stop stop-color="#FFF9B3"/>
<stop offset="0.72" stop-color="#E7ECB5"/>
<stop offset="1" stop-color="#D1E0B7"/>
</linearGradient>
<linearGradient id="paint29_linear_212_2519" x1="177.508" y1="141.727" x2="203.957" y2="93.4989" gradientUnits="userSpaceOnUse">
<stop stop-color="#CBEFFF"/>
<stop offset="0.39" stop-color="#E7F5ED"/>
<stop offset="1" stop-color="#FFFBDE"/>
</linearGradient>
<linearGradient id="paint30_linear_212_2519" x1="219.1" y1="134.286" x2="201.201" y2="101.974" gradientUnits="userSpaceOnUse">
<stop stop-color="#CBEFFF"/>
<stop offset="1" stop-color="#FFFBDE"/>
</linearGradient>
<linearGradient id="paint31_linear_212_2519" x1="94.7061" y1="185.466" x2="18.004" y2="185.466" gradientUnits="userSpaceOnUse">
<stop stop-color="#7F2300"/>
<stop offset="1" stop-color="#E5DC9E"/>
</linearGradient>
<linearGradient id="paint32_linear_212_2519" x1="94.5773" y1="186.508" x2="17.8752" y2="186.508" gradientUnits="userSpaceOnUse">
<stop stop-color="#7F2300"/>
<stop offset="1" stop-color="#E5DC9E"/>
</linearGradient>
<linearGradient id="paint33_linear_212_2519" x1="86.5446" y1="185.663" x2="19.8769" y2="185.663" gradientUnits="userSpaceOnUse">
<stop stop-color="#7F2300"/>
<stop offset="1" stop-color="#E5DC9E"/>
</linearGradient>
<clipPath id="clip0_212_2519">
<rect width="276" height="244" fill="white" transform="matrix(-1 0 0 1 276 0)"/>
</clipPath>
</defs>
</svg>
